<svg width="162" height="44" viewBox="0 0 162 44" fill="none" xmlns="http://www.w3.org/2000/svg">
<path d="M12.5969 41.1751L13.0286 41.9315L13.8996 41.9315L33.5652 41.9315L34.4362 41.9315L34.8679 41.1751L45.3027 22.8934L45.7218 22.1592L45.3107 21.4204L34.8759 2.66999L34.4471 1.89941L33.5652 1.89941L13.8996 1.89941L13.0178 1.89941L12.5889 2.66999L2.15412 21.4204L1.74301 22.1592L2.1621 22.8934L12.5969 41.1751Z" fill="white" stroke="white" stroke-width="3"/>
<path fill-rule="evenodd" clip-rule="evenodd" d="M29.8696 18.2378L32.0049 22.0748L27.9502 29.1786L19.5165 29.1786L15.4619 22.0748L19.592 14.6533L23.957 14.6533L21.0325 19.8352L22.9582 23.209L27.0332 23.209L29.8696 18.2378Z" fill="#0000C0"/>
<rect width="6.67894" height="10.1711" transform="matrix(0.86929 0.494302 -0.493575 0.869704 18.3174 24.7051)" fill="url(#paint0_linear)"/>
<path fill-rule="evenodd" clip-rule="evenodd" d="M30.1286 32.9314L36.3122 22.0977L30.0804 10.8996L17.3844 10.8996L11.1526 22.0977L17.3363 32.9314L30.1286 32.9314ZM13.8996 40.4315L33.5652 40.4315L44 22.1499L33.5652 3.39941L13.8996 3.39941L3.46483 22.1499L13.8996 40.4315Z" fill="#BFBFBF"/>
<path d="M58.98 11.08C57.6 11.08 56.4 11.52 55.56 12.36V7.16H52.44V22H55.56V16.68C55.56 14.7 56.64 13.78 58.14 13.78C59.52 13.78 60.32 14.58 60.32 16.32V22H63.44V15.84C63.44 12.56 61.52 11.08 58.98 11.08ZM73.9881 11.24V16.56C73.9881 18.54 72.9481 19.46 71.5081 19.46C70.1281 19.46 69.3281 18.66 69.3281 16.86V11.24H66.2081V17.32C66.2081 20.64 68.1081 22.16 70.8081 22.16C72.1281 22.16 73.3281 21.66 74.1481 20.72V22H77.1081V11.24H73.9881ZM83.6186 22.16C86.8386 22.16 88.6986 20.74 88.6986 18.74C88.6986 14.5 82.1986 16.28 82.1986 14.44C82.1986 13.88 82.7986 13.44 84.1986 13.44C85.1786 13.44 86.2386 13.64 87.2986 14.24L88.3386 12.02C87.3186 11.42 85.6786 11.08 84.1986 11.08C81.0586 11.08 79.2186 12.52 79.2186 14.56C79.2186 18.86 85.7186 17.06 85.7186 18.82C85.7186 19.42 85.1786 19.8 83.7386 19.8C82.4186 19.8 80.9586 19.38 79.9986 18.76L78.9586 21C79.9586 21.66 81.7986 22.16 83.6186 22.16ZM97.1636 11.08C95.7836 11.08 94.5836 11.52 93.7436 12.36V7.16H90.6236V22H93.7436V16.68C93.7436 14.7 94.8236 13.78 96.3236 13.78C97.7036 13.78 98.5036 14.58 98.5036 16.32V22H101.624V15.84C101.624 12.56 99.7036 11.08 97.1636 11.08ZM118.232 11.08C116.612 11.08 115.212 11.74 114.352 12.84C113.592 11.66 112.312 11.08 110.812 11.08C109.432 11.08 108.232 11.56 107.432 12.48V11.24H104.452V22H107.572V16.6C107.572 14.68 108.552 13.78 109.932 13.78C111.232 13.78 111.972 14.58 111.972 16.32V22H115.092V16.6C115.092 14.68 116.072 13.78 117.472 13.78C118.732 13.78 119.512 14.58 119.512 16.32V22H122.632V15.84C122.632 12.56 120.792 11.08 118.232 11.08ZM136.085 16.66C136.085 13.2 133.645 11.08 130.485 11.08C127.205 11.08 124.745 13.4 124.745 16.62C124.745 19.82 127.165 22.16 130.885 22.16C132.825 22.16 134.325 21.56 135.325 20.42L133.665 18.62C132.925 19.32 132.105 19.66 130.965 19.66C129.325 19.66 128.185 18.84 127.885 17.5H136.025C136.045 17.24 136.085 16.9 136.085 16.66ZM130.505 13.44C131.905 13.44 132.925 14.32 133.145 15.68H127.845C128.065 14.3 129.085 13.44 130.505 13.44ZM141.783 22.16C145.003 22.16 146.863 20.74 146.863 18.74C146.863 14.5 140.363 16.28 140.363 14.44C140.363 13.88 140.963 13.44 142.363 13.44C143.343 13.44 144.403 13.64 145.463 14.24L146.503 12.02C145.483 11.42 143.843 11.08 142.363 11.08C139.223 11.08 137.383 12.52 137.383 14.56C137.383 18.86 143.883 17.06 143.883 18.82C143.883 19.42 143.343 19.8 141.903 19.8C140.583 19.8 139.123 19.38 138.163 18.76L137.123 21C138.123 21.66 139.963 22.16 141.783 22.16ZM155.328 11.08C153.948 11.08 152.748 11.52 151.908 12.36V7.16H148.788V22H151.908V16.68C151.908 14.7 152.988 13.78 154.488 13.78C155.868 13.78 156.668 14.58 156.668 16.32V22H159.788V15.84C159.788 12.56 157.868 11.08 155.328 11.08Z" fill="#0000C0"/>
<path d="M53.043 28.5449V37H56.2129C58.7441 37 60.1914 35.4473 60.1914 32.7344C60.1914 30.0801 58.7266 28.5449 56.2129 28.5449H53.043ZM54.5547 29.8164H56.0137C57.6719 29.8164 58.6504 30.8945 58.6504 32.7578C58.6504 34.6621 57.6953 35.7285 56.0137 35.7285H54.5547V29.8164ZM67.8984 35.7285H63.9375V33.3086H67.6816V32.1074H63.9375V29.8164H67.8984V28.5449H62.4258V37H67.8984V35.7285ZM74.3398 37L77.2637 28.5449H75.6523L73.543 35.2715H73.4434L71.3164 28.5449H69.6465L72.5996 37H74.3398ZM84.6953 35.7285H80.7344V33.3086H84.4785V32.1074H80.7344V29.8164H84.6953V28.5449H79.2227V37H84.6953V35.7285ZM92.4609 35.7051H88.582V28.5449H87.0703V37H92.4609V35.7051ZM97.9531 28.334C95.498 28.334 93.9512 30.0391 93.9512 32.7695C93.9512 35.4941 95.4746 37.2109 97.9531 37.2109C100.42 37.2109 101.949 35.4941 101.949 32.7695C101.949 30.0391 100.414 28.334 97.9531 28.334ZM97.9531 29.6406C99.4531 29.6406 100.408 30.8535 100.408 32.7695C100.408 34.6738 99.459 35.9043 97.9531 35.9043C96.4297 35.9043 95.498 34.6738 95.498 32.7695C95.498 30.8535 96.4531 29.6406 97.9531 29.6406ZM104.184 28.5449V37H105.695V34.2051H107.529C109.24 34.2051 110.436 33.0625 110.436 31.3926C110.436 29.6934 109.281 28.5449 107.594 28.5449H104.184ZM105.695 29.7812H107.195C108.285 29.7812 108.9 30.3438 108.9 31.3926C108.9 32.4121 108.268 32.9863 107.189 32.9863H105.695V29.7812ZM118.078 35.7285H114.117V33.3086H117.861V32.1074H114.117V29.8164H118.078V28.5449H112.605V37H118.078V35.7285ZM121.965 33.8184H123.641L125.299 37H127.027L125.182 33.5898C126.189 33.2266 126.775 32.2949 126.775 31.1758C126.775 29.5586 125.662 28.5449 123.887 28.5449H120.453V37H121.965V33.8184ZM121.965 29.7695H123.676C124.637 29.7695 125.223 30.3145 125.223 31.2051C125.223 32.1133 124.672 32.6348 123.711 32.6348H121.965V29.7695Z" fill="#828282"/>
<defs>
<linearGradient id="paint0_linear" x1="3.25982" y1="2.83387" x2="3.14123" y2="12.7624" gradientUnits="userSpaceOnUse">
<stop stop-color="#0000C0"/>
<stop offset="1" stop-color="#01019F"/>
</linearGradient>
</defs>
</svg>
