<svg width="124" height="22" viewBox="0 0 124 22" fill="none" xmlns="http://www.w3.org/2000/svg">
<path d="M107.775 4.95825H110.303V16.036H107.775V4.95825ZM109.049 3.13271C108.591 3.13271 108.207 2.9875 107.897 2.69707C107.587 2.39281 107.432 2.01941 107.432 1.57685C107.432 1.1343 107.587 0.767807 107.897 0.47738C108.207 0.173124 108.591 0.0209961 109.049 0.0209961C109.507 0.0209961 109.892 0.166209 110.202 0.456636C110.512 0.733233 110.667 1.08589 110.667 1.51462C110.667 1.971 110.512 2.35824 110.202 2.67633C109.905 2.98058 109.521 3.13271 109.049 3.13271Z" fill="#BFBFBF"/>
<path d="M118.938 4.83378C120.299 4.83378 121.391 5.24176 122.213 6.05772C123.035 6.87368 123.447 8.08379 123.447 9.68806V16.036H120.919V10.02C120.919 9.05188 120.697 8.32582 120.252 7.84177C119.807 7.3439 119.174 7.09496 118.351 7.09496C117.421 7.09496 116.687 7.38539 116.147 7.96624C115.608 8.53326 115.339 9.35614 115.339 10.4349V16.036H112.811V4.95825H115.217V6.38964C115.635 5.87793 116.161 5.4907 116.794 5.22793C117.428 4.96516 118.142 4.83378 118.938 4.83378Z" fill="#BFBFBF"/>
<path d="M60.2257 5.31466C61.6425 5.31466 62.7648 5.70013 63.5925 6.47106C64.4202 7.22893 64.834 8.37226 64.834 9.90106V15.8986H62.2037V10.2147C62.2037 9.29999 61.9862 8.61399 61.5514 8.15666C61.1165 7.68626 60.4922 7.45106 59.6786 7.45106C58.7948 7.45106 58.0863 7.72546 57.5533 8.27426C57.0202 8.80999 56.7536 9.58092 56.7536 10.5871V15.8986H54.1233V10.2147C54.1233 9.29999 53.9059 8.61399 53.471 8.15666C53.0361 7.68626 52.4119 7.45106 51.5982 7.45106C50.7004 7.45106 49.9849 7.71893 49.4519 8.25466C48.9328 8.79039 48.6733 9.56786 48.6733 10.5871V15.8986H46.043V5.43226H48.547V6.76506C48.9679 6.29466 49.494 5.93533 50.1252 5.68706C50.7565 5.4388 51.4579 5.31466 52.2295 5.31466C53.0712 5.31466 53.8147 5.46493 54.46 5.76546C55.1193 6.05293 55.6384 6.48413 56.0172 7.05906C56.4801 6.51026 57.0763 6.0856 57.8058 5.78506C58.5352 5.47146 59.3419 5.31466 60.2257 5.31466Z" fill="#0000C0"/>
<path d="M78.0196 10.7243C78.0196 10.8941 78.0056 11.1359 77.9775 11.4495H69.1607C69.315 12.2204 69.7148 12.8345 70.3601 13.2919C71.0195 13.7361 71.8331 13.9583 72.8011 13.9583C74.0356 13.9583 75.0526 13.5793 75.8522 12.8215L77.2621 14.3306C76.7571 14.8925 76.1188 15.3172 75.3472 15.6046C74.5757 15.8921 73.7059 16.0358 72.7379 16.0358C71.5034 16.0358 70.4162 15.8072 69.4763 15.3498C68.5364 14.8925 67.807 14.2588 67.2879 13.4487C66.7829 12.6255 66.5304 11.6977 66.5304 10.6655C66.5304 9.64626 66.7759 8.73159 67.2669 7.92146C67.7719 7.09826 68.4663 6.45799 69.3501 6.00066C70.2339 5.54333 71.2299 5.31466 72.3381 5.31466C73.4324 5.31466 74.4073 5.54333 75.2631 6.00066C76.1328 6.44493 76.8062 7.07866 77.2831 7.90186C77.7741 8.71199 78.0196 9.65279 78.0196 10.7243ZM72.3381 7.27466C71.4964 7.27466 70.781 7.50986 70.1918 7.98026C69.6166 8.43759 69.2659 9.05172 69.1397 9.82266H75.5156C75.4033 9.06479 75.0596 8.45066 74.4845 7.98026C73.9093 7.50986 73.1939 7.27466 72.3381 7.27466Z" fill="#0000C0"/>
<path d="M83.1765 16.0358C82.2647 16.0358 81.3739 15.9248 80.5041 15.7026C79.6344 15.4805 78.94 15.1996 78.4209 14.8598L79.431 12.9979C79.936 13.3115 80.5392 13.5663 81.2406 13.7623C81.9561 13.9452 82.6575 14.0367 83.3449 14.0367C84.9161 14.0367 85.7017 13.6512 85.7017 12.8803C85.7017 12.5144 85.4982 12.2596 85.0914 12.1159C84.6986 11.9721 84.0603 11.8349 83.1765 11.7043C82.2507 11.5736 81.4931 11.4233 80.9039 11.2535C80.3288 11.0836 79.8238 10.7896 79.3889 10.3715C78.968 9.94026 78.7576 9.34572 78.7576 8.58786C78.7576 7.59479 79.1995 6.80426 80.0833 6.21626C80.9811 5.6152 82.1875 5.31466 83.7026 5.31466C84.4742 5.31466 85.2457 5.3996 86.0173 5.56946C86.7888 5.72626 87.4201 5.94186 87.9111 6.21626L86.9011 8.07826C85.9471 7.55559 84.874 7.29426 83.6816 7.29426C82.91 7.29426 82.3208 7.40533 81.914 7.62746C81.5212 7.83653 81.3248 8.11746 81.3248 8.47026C81.3248 8.86226 81.5352 9.14319 81.9561 9.31306C82.391 9.46986 83.0573 9.62012 83.9551 9.76386C84.8529 9.89452 85.5894 10.0448 86.1646 10.2147C86.7398 10.3845 87.2307 10.672 87.6376 11.0771C88.0584 11.4821 88.2688 12.0571 88.2688 12.8019C88.2688 13.7818 87.8129 14.5658 86.9011 15.1538C85.9892 15.7418 84.7477 16.0358 83.1765 16.0358Z" fill="#0000C0"/>
<path d="M96.0682 5.31466C97.4851 5.31466 98.6214 5.70013 99.4771 6.47106C100.333 7.24199 100.761 8.38533 100.761 9.90106V15.8986H98.1304V10.2147C98.1304 9.29999 97.8989 8.61399 97.436 8.15666C96.9731 7.68626 96.3137 7.45106 95.458 7.45106C94.4901 7.45106 93.7255 7.72546 93.1644 8.27426C92.6032 8.80999 92.3227 9.58746 92.3227 10.6067V15.8986H89.6923V1.35547H92.3227V6.64746C92.7575 6.21626 93.2906 5.8896 93.9219 5.66746C94.5672 5.43226 95.2827 5.31466 96.0682 5.31466Z" fill="#0000C0"/>
<path d="M6.36711 5.33524e-09L18.9255 0.00428098C18.9582 0.00429215 18.9884 0.0217914 19.0048 0.0501908L25.2877 10.9585C25.304 10.9869 25.3041 11.0219 25.2877 11.0503L22.2973 16.2462L19.2559 10.9661C19.2543 10.9609 19.2523 10.9559 19.2498 10.9511L19.2476 10.947L15.9928 5.2961C15.9772 5.26894 15.9489 5.25175 15.9178 5.25029L15.9136 5.25019L9.40884 5.2475C9.37751 5.24748 9.34845 5.26351 9.33166 5.28979L9.32945 5.29344L6.07942 10.9415C6.06386 10.9685 6.06312 11.0016 6.07722 11.0292L6.07944 11.0333L9.33421 16.6841C9.34985 16.7113 9.37819 16.7285 9.40925 16.73L9.4135 16.7301L15.2138 16.7324L18.248 22L6.37451 21.9959C6.34179 21.9959 6.31156 21.9784 6.29521 21.95L0.0122722 11.0417C-0.00408517 11.0133 -0.0040911 10.9783 0.0122566 10.9499L6.28773 0.0459368C6.3041 0.0175029 6.33436 -1.11599e-05 6.36711 5.33524e-09Z" fill="#BFBFBF"/>
<path d="M31.5841 22.0001L19.0257 21.9958C18.993 21.9958 18.9628 21.9783 18.9464 21.9499L12.6635 11.0416C12.6471 11.0132 12.6471 10.9782 12.6635 10.9498L15.6539 5.75388L18.6953 11.0341C18.6968 11.0392 18.6989 11.0442 18.7013 11.049L18.7036 11.0531L21.9583 16.704C21.974 16.7312 22.0023 16.7484 22.0334 16.7498L22.0376 16.7499L28.5423 16.7526C28.5737 16.7526 28.6027 16.7366 28.6195 16.7103L28.6217 16.7067L31.8717 11.0586C31.8873 11.0316 31.888 10.9986 31.874 10.971L31.8717 10.9669L28.617 5.31597C28.6013 5.28881 28.573 5.27162 28.5419 5.27016L28.5377 5.27006L22.7374 5.26768L19.7032 0.000152588L31.5767 0.00419426C31.6094 0.0042038 31.6396 0.0217018 31.656 0.0501022L37.9389 10.9584C37.9553 10.9868 37.9553 11.0218 37.9389 11.0502L31.6634 21.9542C31.6471 21.9826 31.6168 22.0001 31.5841 22.0001Z" fill="#0000C0"/>
</svg>
